# xmcd
#
# Track frame offsets: 
#        150
#        12223
#        29739
#        60474
#        76942
#        91568
#        104205
#        127177
#        141661
#        154276
#        170792
#        183378
#        199699
#        215515
#        229789
#        239919
#
# Disc length: 3458 seconds
#
# Revision: 0
# Processed by: cddbd v1.5.2PL0 Copyright (c) Steve Scherf et al.
# Submitted via: ExactAudioCopy v0.99pb4
#
DISCID=ef0d8010
DTITLE=Ladka Kozderkova - Hallo Dolly
DYEAR=2003
DGENRE=Vocal
TTITLE0=Ja uz vim
TTITLE1=Letní ukolébavka
TTITLE2=Hallo Dolly
TTITLE3=Co bude dál
TTITLE4=Don Juan
TTITLE5=Klobouk ve køoví
TTITLE6=Zivot je jen nahoda
TTITLE7=Kdyz jsem kytici vazala
TTITLE8=Mych prani ris
TTITLE9=Vzdyt ja uz jsem vdana
TTITLE10=Kabaret
TTITLE11=Já zas jen jeho ráda mám
TTITLE12=Tøi vteøiny
TTITLE13=Líbej mì, lásko
TTITLE14=Dívka v rytmu zrozená
TTITLE15=Smìs písní
EXTD=
EXTT0=
EXTT1=
EXTT2=
EXTT3=
EXTT4=
EXTT5=
EXTT6=
EXTT7=
EXTT8=
EXTT9=
EXTT10=
EXTT11=
EXTT12=
EXTT13=
EXTT14=
EXTT15=
PLAYORDER=
